<mxfile host="app.diagrams.net" modified="2022-07-14T14:11:42.567Z" agent="5.0 (X11; Linux x86_64) AppleWebKit/537.36 (KHTML, like Gecko) Chrome/103.0.5060.114 Safari/537.36" etag="Tk8bB9sXHw56j6pwS0pt" version="20.1.1" type="github">
  <diagram id="K63ozjyFS9rHoqMc6nnv" name="Page-1">
    <mxGraphModel dx="5409" dy="2598" grid="1" gridSize="10" guides="1" tooltips="1" connect="1" arrows="1" fold="1" page="1" pageScale="1" pageWidth="827" pageHeight="1169" math="1" shadow="0">
      <root>
        <mxCell id="0" />
        <mxCell id="1" parent="0" />
        <mxCell id="lB23-d9yXbPEI1ipm8zh-12" value="&lt;b&gt;&lt;font style=&quot;font-size: 20px;&quot;&gt;Process/Thread 1&lt;/font&gt;&lt;/b&gt;" style="rounded=0;whiteSpace=wrap;html=1;sketch=0;fontSize=15;strokeWidth=2;fillColor=#f5f5f5;fontColor=#333333;strokeColor=#666666;labelPosition=center;verticalLabelPosition=bottom;align=center;verticalAlign=top;" parent="1" vertex="1">
          <mxGeometry x="70" y="1000" width="750" height="250" as="geometry" />
        </mxCell>
        <mxCell id="lB23-d9yXbPEI1ipm8zh-1" value="IP flows stream" style="ellipse;shape=cloud;whiteSpace=wrap;html=1;strokeWidth=5;fillColor=#dae8fc;strokeColor=#6c8ebf;fontFamily=computer modern;fontSize=18;sketch=0;" parent="1" vertex="1">
          <mxGeometry x="70" y="490" width="210" height="100" as="geometry" />
        </mxCell>
        <mxCell id="lB23-d9yXbPEI1ipm8zh-2" value="" style="shape=flexArrow;endArrow=classic;html=1;rounded=0;fontSize=18;strokeWidth=2;sketch=0;fillColor=#6d8764;strokeColor=#3A5431;" parent="1" edge="1">
          <mxGeometry width="50" height="50" relative="1" as="geometry">
            <mxPoint x="194.5" y="590" as="sourcePoint" />
            <mxPoint x="195" y="750" as="targetPoint" />
          </mxGeometry>
        </mxCell>
        <mxCell id="lB23-d9yXbPEI1ipm8zh-3" value="Query Strategy B" style="rounded=0;whiteSpace=wrap;html=1;fontSize=18;strokeWidth=2;sketch=0;" parent="1" vertex="1">
          <mxGeometry x="590" y="1140" width="155" height="70" as="geometry" />
        </mxCell>
        <mxCell id="lB23-d9yXbPEI1ipm8zh-4" value="$$\mathcal{U}$$" style="shape=cylinder3;whiteSpace=wrap;html=1;boundedLbl=1;backgroundOutline=1;size=15;fontSize=18;strokeWidth=2;fillColor=#f8cecc;strokeColor=#b85450;sketch=0;" parent="1" vertex="1">
          <mxGeometry x="165" y="770" width="60" height="80" as="geometry" />
        </mxCell>
        <mxCell id="lB23-d9yXbPEI1ipm8zh-5" value="Sample from collector etc.&lt;br&gt;Sample Strategy A&lt;br&gt;1) need to be fast&lt;br&gt;2) real time stream&lt;br&gt;Ideas - something easy as random or biased random" style="text;html=1;strokeColor=none;fillColor=none;align=center;verticalAlign=middle;whiteSpace=wrap;rounded=0;fontSize=18;sketch=0;" parent="1" vertex="1">
          <mxGeometry x="210" y="620" width="240" height="90" as="geometry" />
        </mxCell>
        <mxCell id="lB23-d9yXbPEI1ipm8zh-6" value="This can be considered as pool" style="text;html=1;strokeColor=none;fillColor=none;align=center;verticalAlign=middle;whiteSpace=wrap;rounded=0;fontSize=15;sketch=0;" parent="1" vertex="1">
          <mxGeometry x="60" y="762.5" width="100" height="87.5" as="geometry" />
        </mxCell>
        <mxCell id="lB23-d9yXbPEI1ipm8zh-9" value="$$\mathcal{L}$$" style="shape=cylinder3;whiteSpace=wrap;html=1;boundedLbl=1;backgroundOutline=1;size=15;fontSize=18;strokeWidth=2;fillColor=#d5e8d4;strokeColor=#82b366;sketch=0;" parent="1" vertex="1">
          <mxGeometry x="440" y="766.25" width="60" height="80" as="geometry" />
        </mxCell>
        <mxCell id="lB23-d9yXbPEI1ipm8zh-15" value="Prediction" style="rounded=0;whiteSpace=wrap;html=1;fontSize=18;strokeWidth=2;sketch=0;" parent="1" vertex="1">
          <mxGeometry x="117.5" y="1140" width="155" height="70" as="geometry" />
        </mxCell>
        <mxCell id="lB23-d9yXbPEI1ipm8zh-19" value="" style="shape=flexArrow;endArrow=classic;html=1;rounded=0;sketch=0;fontSize=20;strokeWidth=1;exitX=0.548;exitY=-0.029;exitDx=0;exitDy=0;exitPerimeter=0;" parent="1" source="lB23-d9yXbPEI1ipm8zh-3" edge="1">
          <mxGeometry width="50" height="50" relative="1" as="geometry">
            <mxPoint x="650" y="1050" as="sourcePoint" />
            <mxPoint x="730" y="930" as="targetPoint" />
          </mxGeometry>
        </mxCell>
        <mxCell id="lB23-d9yXbPEI1ipm8zh-20" value="Annotator" style="rounded=0;whiteSpace=wrap;html=1;fontSize=18;strokeWidth=2;sketch=0;" parent="1" vertex="1">
          <mxGeometry x="650" y="850" width="155" height="70" as="geometry" />
        </mxCell>
        <mxCell id="lB23-d9yXbPEI1ipm8zh-22" value="" style="shape=flexArrow;endArrow=classic;html=1;rounded=0;sketch=0;fontSize=20;strokeWidth=1;entryX=0.5;entryY=0;entryDx=0;entryDy=0;" parent="1" target="lB23-d9yXbPEI1ipm8zh-26" edge="1">
          <mxGeometry width="50" height="50" relative="1" as="geometry">
            <mxPoint x="470" y="870" as="sourcePoint" />
            <mxPoint x="450" y="910" as="targetPoint" />
          </mxGeometry>
        </mxCell>
        <mxCell id="lB23-d9yXbPEI1ipm8zh-23" value="&lt;b&gt;&lt;font style=&quot;font-size: 20px;&quot;&gt;Process/Thread 2&lt;/font&gt;&lt;/b&gt;" style="rounded=0;whiteSpace=wrap;html=1;sketch=0;fontSize=15;strokeWidth=2;fillColor=#f5f5f5;fontColor=#333333;strokeColor=#666666;labelPosition=center;verticalLabelPosition=bottom;align=center;verticalAlign=top;" parent="1" vertex="1">
          <mxGeometry x="70" y="1390" width="750" height="250" as="geometry" />
        </mxCell>
        <mxCell id="lB23-d9yXbPEI1ipm8zh-25" value="" style="shape=flexArrow;endArrow=classic;html=1;rounded=0;fontSize=18;strokeWidth=2;sketch=0;entryX=0.5;entryY=0;entryDx=0;entryDy=0;" parent="1" target="lB23-d9yXbPEI1ipm8zh-15" edge="1">
          <mxGeometry width="50" height="50" relative="1" as="geometry">
            <mxPoint x="194.5" y="880" as="sourcePoint" />
            <mxPoint x="195" y="1040" as="targetPoint" />
          </mxGeometry>
        </mxCell>
        <mxCell id="lB23-d9yXbPEI1ipm8zh-26" value="AL Model or group of models" style="rounded=0;whiteSpace=wrap;html=1;fontSize=18;strokeWidth=2;sketch=0;" parent="1" vertex="1">
          <mxGeometry x="392.5" y="1030" width="155" height="70" as="geometry" />
        </mxCell>
        <mxCell id="lB23-d9yXbPEI1ipm8zh-28" value="" style="shape=flexArrow;endArrow=classic;html=1;rounded=0;sketch=0;fontSize=20;strokeWidth=1;" parent="1" edge="1">
          <mxGeometry width="50" height="50" relative="1" as="geometry">
            <mxPoint x="630" y="880" as="sourcePoint" />
            <mxPoint x="530" y="830" as="targetPoint" />
          </mxGeometry>
        </mxCell>
        <mxCell id="lB23-d9yXbPEI1ipm8zh-34" style="edgeStyle=orthogonalEdgeStyle;rounded=0;sketch=0;fillStyle=auto;orthogonalLoop=1;jettySize=auto;html=1;entryX=0;entryY=0.5;entryDx=0;entryDy=0;fontSize=20;strokeColor=default;strokeWidth=1;fillColor=#54FF8D;startArrow=none;" parent="1" source="lB23-d9yXbPEI1ipm8zh-40" target="lB23-d9yXbPEI1ipm8zh-33" edge="1">
          <mxGeometry relative="1" as="geometry" />
        </mxCell>
        <mxCell id="lB23-d9yXbPEI1ipm8zh-30" value="Production model" style="rounded=0;whiteSpace=wrap;html=1;sketch=0;fontSize=20;strokeWidth=2;" parent="1" vertex="1">
          <mxGeometry x="117.5" y="1485" width="162.5" height="60" as="geometry" />
        </mxCell>
        <mxCell id="lB23-d9yXbPEI1ipm8zh-32" value="" style="shape=flexArrow;endArrow=classic;html=1;rounded=0;sketch=0;fontSize=20;strokeColor=#3A5431;strokeWidth=1;fillColor=#6d8764;entryX=0;entryY=0.5;entryDx=0;entryDy=0;fillStyle=auto;" parent="1" target="lB23-d9yXbPEI1ipm8zh-30" edge="1">
          <mxGeometry width="50" height="50" relative="1" as="geometry">
            <mxPoint x="90" y="530" as="sourcePoint" />
            <mxPoint x="30" y="1500" as="targetPoint" />
            <Array as="points">
              <mxPoint y="530" />
              <mxPoint x="-10" y="1515" />
            </Array>
          </mxGeometry>
        </mxCell>
        <mxCell id="lB23-d9yXbPEI1ipm8zh-36" style="edgeStyle=orthogonalEdgeStyle;rounded=0;sketch=0;fillStyle=auto;orthogonalLoop=1;jettySize=auto;html=1;fontSize=20;strokeColor=default;strokeWidth=1;fillColor=#54FF8D;" parent="1" source="lB23-d9yXbPEI1ipm8zh-33" target="lB23-d9yXbPEI1ipm8zh-35" edge="1">
          <mxGeometry relative="1" as="geometry" />
        </mxCell>
        <mxCell id="lB23-d9yXbPEI1ipm8zh-33" value="Result" style="rounded=0;whiteSpace=wrap;html=1;sketch=0;fontSize=20;strokeWidth=2;" parent="1" vertex="1">
          <mxGeometry x="610" y="1485" width="120" height="60" as="geometry" />
        </mxCell>
        <mxCell id="lB23-d9yXbPEI1ipm8zh-35" value="Visualize" style="rounded=0;whiteSpace=wrap;html=1;sketch=0;fontSize=20;strokeWidth=2;fillColor=#fff2cc;strokeColor=#d6b656;" parent="1" vertex="1">
          <mxGeometry x="610" y="1730" width="120" height="60" as="geometry" />
        </mxCell>
        <mxCell id="lB23-d9yXbPEI1ipm8zh-29" value="" style="endArrow=classic;html=1;rounded=0;sketch=0;fontSize=20;strokeColor=#6c8ebf;strokeWidth=7;fillColor=#dae8fc;exitX=0.5;exitY=1;exitDx=0;exitDy=0;" parent="1" source="lB23-d9yXbPEI1ipm8zh-26" target="lB23-d9yXbPEI1ipm8zh-30" edge="1">
          <mxGeometry width="50" height="50" relative="1" as="geometry">
            <mxPoint x="440" y="1260" as="sourcePoint" />
            <mxPoint x="270" y="1340" as="targetPoint" />
            <Array as="points">
              <mxPoint x="310" y="1280" />
            </Array>
          </mxGeometry>
        </mxCell>
        <mxCell id="lB23-d9yXbPEI1ipm8zh-17" value="predict and use&amp;nbsp;&lt;br&gt;information obtained by&lt;br&gt;prediction (uncert etc.)" style="edgeStyle=orthogonalEdgeStyle;rounded=0;sketch=0;orthogonalLoop=1;jettySize=auto;html=1;fontSize=20;strokeColor=default;strokeWidth=1;" parent="1" source="lB23-d9yXbPEI1ipm8zh-15" target="lB23-d9yXbPEI1ipm8zh-3" edge="1">
          <mxGeometry relative="1" as="geometry" />
        </mxCell>
        <mxCell id="lB23-d9yXbPEI1ipm8zh-38" value="model can provide&lt;br&gt;its uncertainty measure" style="text;html=1;strokeColor=none;fillColor=none;align=center;verticalAlign=middle;whiteSpace=wrap;rounded=0;sketch=1;fontSize=20;" parent="1" vertex="1">
          <mxGeometry x="-180" y="920" width="170" height="70" as="geometry" />
        </mxCell>
        <mxCell id="lB23-d9yXbPEI1ipm8zh-40" value="random annotation for accuracy&lt;br&gt;metrics" style="rounded=0;whiteSpace=wrap;html=1;sketch=0;fontSize=20;strokeWidth=2;" parent="1" vertex="1">
          <mxGeometry x="380" y="1467.5" width="120" height="95" as="geometry" />
        </mxCell>
        <mxCell id="lB23-d9yXbPEI1ipm8zh-41" value="" style="edgeStyle=orthogonalEdgeStyle;rounded=0;sketch=0;fillStyle=auto;orthogonalLoop=1;jettySize=auto;html=1;entryX=0;entryY=0.5;entryDx=0;entryDy=0;fontSize=20;strokeColor=default;strokeWidth=1;fillColor=#54FF8D;endArrow=none;" parent="1" source="lB23-d9yXbPEI1ipm8zh-30" target="lB23-d9yXbPEI1ipm8zh-40" edge="1">
          <mxGeometry relative="1" as="geometry">
            <mxPoint x="280" y="1515" as="sourcePoint" />
            <mxPoint x="610" y="1515" as="targetPoint" />
          </mxGeometry>
        </mxCell>
        <mxCell id="lB23-d9yXbPEI1ipm8zh-42" value="this part must be unbiased thus &lt;b&gt;random&lt;/b&gt;" style="text;html=1;strokeColor=none;fillColor=none;align=center;verticalAlign=middle;whiteSpace=wrap;rounded=0;sketch=0;fontSize=20;" parent="1" vertex="1">
          <mxGeometry x="105" y="1715" width="205" height="90" as="geometry" />
        </mxCell>
        <mxCell id="lB23-d9yXbPEI1ipm8zh-43" value="" style="endArrow=classic;html=1;rounded=0;sketch=0;fillStyle=auto;fontSize=20;strokeColor=default;strokeWidth=1;fillColor=#54FF8D;entryX=0;entryY=1;entryDx=0;entryDy=0;" parent="1" target="lB23-d9yXbPEI1ipm8zh-40" edge="1">
          <mxGeometry width="50" height="50" relative="1" as="geometry">
            <mxPoint x="260" y="1720" as="sourcePoint" />
            <mxPoint x="490" y="1370" as="targetPoint" />
          </mxGeometry>
        </mxCell>
        <mxCell id="ZqH-Rbf5gI5dDg4_yRIG-1" value="" style="shape=flexArrow;endArrow=classic;html=1;rounded=0;sketch=0;fontSize=20;strokeWidth=1;exitX=0.548;exitY=-0.029;exitDx=0;exitDy=0;exitPerimeter=0;" edge="1" parent="1">
          <mxGeometry width="50" height="50" relative="1" as="geometry">
            <mxPoint x="500" y="1467.5" as="sourcePoint" />
            <mxPoint x="806" y="920" as="targetPoint" />
            <Array as="points">
              <mxPoint x="1056" y="1140" />
            </Array>
          </mxGeometry>
        </mxCell>
      </root>
    </mxGraphModel>
  </diagram>
</mxfile>
